<?xml version="1.0" encoding="utf-8"?>
<!-- Generator: Adobe Illustrator 18.0.0, SVG Export Plug-In . SVG Version: 6.00 Build 0)  -->
<!DOCTYPE svg PUBLIC "-//W3C//DTD SVG 1.1//EN" "http://www.w3.org/Graphics/SVG/1.1/DTD/svg11.dtd">
<svg version="1.1" id="Layer_1" xmlns="http://www.w3.org/2000/svg" xmlns:xlink="http://www.w3.org/1999/xlink" x="0px" y="0px"
	 viewBox="0 0 1400 980" enable-background="new 0 0 1400 980" xml:space="preserve">
<g>
	<g>
		<g>
			<g>
				<linearGradient id="SVGID_1_" gradientUnits="userSpaceOnUse" x1="0.4913" y1="3.7318" x2="1403.6692" y2="979.1603">
					<stop  offset="0" style="stop-color:#231833"/>
					<stop  offset="1" style="stop-color:#FBB682"/>
				</linearGradient>
				<rect fill="url(#SVGID_1_)" width="1400" height="980"/>
			</g>
		</g>
	</g>
	<circle fill="#FFD791" cx="957" cy="280.7" r="229.3"/>
	<path opacity="0.2" fill="#FFFFFF" d="M1400,496.7c-6.6,0.8-13.2,1.5-19.7,2.2c-34.6,3.5-74.4,1.1-97-25.4
		c-13.2-15.5-18.7-37.7-35.6-49.1c-28.4-19.2-64.8,3.9-97,15.6c-47.7,17.3-100.3,7.8-151,5.1c-50.7-2.7-108,4.6-139.6,44.4
		c-7.2,9-13.1,19.7-23.2,25.3c-14.9,8.2-33.2,2.6-50.2,2.6c-41.4,0-74,33.5-111.8,50.3c-64.8,28.9-140.3,7.1-205.3-21.1
		s-130.8-63.5-201.7-60.9c-11.7,0.4-23.9,2-33.8,8.4c-10.3,6.6-16.9,17.5-25.6,26.1c-28.6,28.3-74.4,27.8-114.2,21.5
		c-31.1-4.9-63.7-12-94.2-7.5V980h1400V496.7z"/>
	<path fill="#432033" d="M1344.4,530.3c-12.5-4.2-60.4-14.6-102.1-8.3c-41.7,6.3-179.2,77.1-229.2,75c-50-2.1-118.8,0-186.1-2.4
		s-113.9,71.9-149.3,64.9c-35.4-7-66.7-31.3-97.9-41.7c-31.3-10.4-37.5,10.4-58.3,12.5c-20.8,2.1-79.2-68.8-100-75
		s-60.4,25-83.3,33.3c-22.9,8.3-33.3-4.2-68.8,0c-30.6,3.6-85.9,19.6-136.6,23.9L126.1,502L115,613.5c-0.3,0-0.5,0-0.8,0l-11-81.1
		c0,0-9.8,65.3-12.5,81.1c-0.5,0-1,0-1.6,0c-1.9-10.7-5.6-42.6-5.6-42.6s-6.2,28-9.5,42.5c-1.3,0-2.5,0-3.8,0
		c-4-22.9-13-84.3-13-84.3l-13.1,84c-14.7-0.2-29.8-0.3-44.1-0.5V980h1400V538.8C1374.3,535.5,1349.9,532.1,1344.4,530.3z"/>
	<path fill="#27131E" d="M7.8,672.6c-2.6,0.2-5.2,0.4-7.8,0.7v182.5c109.9-1.3,219.9-2.6,329.8-3.9c40.7-0.5,81.6-1,122-5.9
		c27.4-3.3,54.5-8.7,81.5-14.5c76.6-16.4,152.5-36.3,226.5-61.9c13.8-4.8,30.1-13.1,30.1-27.8c0-7.1-4.2-13.5-8.2-19.3
		c-8.6-12.4-17.9-25.1-31.2-32.2c-23.3-12.5-51.8-4.6-77.2,3c-38.2,11.5-78.1,21.8-117.5,15.7c-25.9-4-50.5-14.8-76.6-16.5
		c-37.3-2.4-74.3,14.3-111.4,9.2c-57-7.8-99.5-64.8-156.9-67.2c-36.1-1.5-69.1,19.1-104,28.3C74.6,671.3,40.9,670.1,7.8,672.6z"/>
	<g>
		<path fill="#1D1025" d="M821.2,681.2c-11.6-8.6-21.1-19.9-27.6-32.7c2.4,0.7,4.8,1.3,7.3,2c-2.8-3.8-5.2-8-7-12.4
			c4,6.3,10.9,10.8,18.4,11.8c-8.6-11.4-15.9-23.7-21.7-36.7c3.7,3.4,8.1,6,12.8,7.6c-8.6-11.3-14.4-24.8-16.8-38.8
			c-4.1,13.6-10.1,26.7-17.8,38.6c4.3-2.8,8.7-5.5,13-8.3c-3.1,12.3-8.5,24-15.9,34.3c4.7-2.7,9.3-5.4,14-8
			c-5.9,13.6-12.7,26.8-20.3,39.5c4.6-2.6,9.2-5.1,13.8-7.7c-4.1,12.4-10.8,24-19.5,33.8c6.4-1.6,12.5-4.2,18.1-7.7
			c-4.1,13.1-12.2,25-23,33.6c9.7-2.1,19-5.9,27.4-11l-7.4,5.1c-3.1,2.3-5.3,5.8-6,9.7c5-3.1,10-6.1,15.1-9.2
			c0.9,4.7,1.1,9.5,0.6,14.3c4.4-4.8,8.2-10,11.5-15.5c4.8,4.7,10.9,8.1,17.5,9.6c-6.3-7.6-12.2-15.5-17.5-23.8
			c7.9,4.4,16.4,7.6,25.2,9.6c-8.9-8.5-16.8-18.1-23.3-28.5c6,2.4,12,4.7,17.9,7.1c-5.6-9.2-11.1-18.4-16.7-27.5
			C801.9,675.5,811.1,681.5,821.2,681.2z"/>
		<path fill="#1D1025" d="M768.8,687.7c-13.8-10.2-25.2-23.7-33-39.1c2.9,0.8,5.8,1.6,8.7,2.4c-3.4-4.6-6.2-9.6-8.4-14.8
			c4.8,7.6,13.1,12.9,21.9,14.1c-10.2-13.6-19-28.3-26-43.9c4.4,4.1,9.7,7.2,15.3,9.1c-10.3-13.5-17.2-29.6-20.1-46.3
			c-4.9,16.3-12.1,31.9-21.3,46.2c5.2-3.3,10.4-6.6,15.6-9.9c-3.7,14.7-10.2,28.6-19,40.9c5.6-3.2,11.1-6.4,16.7-9.6
			c-7.1,16.2-15.2,32-24.2,47.2c5.5-3.1,11-6.1,16.5-9.2c-4.9,14.9-12.9,28.7-23.2,40.4c7.6-1.9,15-5,21.6-9.2
			c-4.9,15.7-14.6,29.8-27.4,40.1c11.6-2.5,22.7-7,32.8-13.2l-8.9,6.1c-3.7,2.8-6.3,7-7.1,11.5c6-3.7,12-7.3,18-11
			c1.1,5.6,1.3,11.4,0.8,17c5.2-5.7,9.9-11.9,13.8-18.6c5.7,5.7,13.1,9.7,20.9,11.5c-7.5-9-14.5-18.5-20.9-28.4
			c9.4,5.2,19.6,9.1,30.1,11.5c-10.7-10.1-20-21.6-27.8-34.1c7.1,2.8,14.3,5.7,21.4,8.5c-6.7-11-13.3-21.9-20-32.9
			C745.7,680.9,756.7,688.1,768.8,687.7z"/>
		<path fill="#1D1025" d="M648.3,797c11.6-2.5,22.7-7,32.8-13.2l-8.9,6.1c-3.7,2.8-6.3,7-7.1,11.5c6-3.7,12-7.3,18-11
			c0.8,4.3,1.2,8.6,1,12.9h3.3c3.8-4.5,7.2-9.4,10.2-14.5c5.7,5.7,13.1,9.7,20.9,11.5c-7.5-9-14.5-18.5-20.9-28.4
			c9.4,5.2,19.6,9.1,30.1,11.5c-10.7-10.1-20-21.6-27.8-34.1c7.1,2.8,14.3,5.7,21.4,8.5c-6.7-11-13.3-21.9-20-32.9
			c10,6.9,21,14,33.1,13.6c-13.8-10.2-25.2-23.7-33-39.1c2.9,0.8,5.8,1.6,8.7,2.4c-3.4-4.6-6.2-9.6-8.4-14.8
			c4.8,7.6,13.1,12.9,21.9,14.1c-10.2-13.6-19-28.3-26-43.9c4.4,4.1,9.7,7.2,15.3,9.1c-10.3-13.5-17.2-29.6-20.1-46.3
			c-4.9,16.3-12.1,31.9-21.3,46.2c5.2-3.3,10.4-6.6,15.6-9.9c-3.7,14.7-10.2,28.6-19,40.9c5.6-3.2,11.1-6.4,16.7-9.6
			c-7.1,16.2-15.2,32-24.2,47.2c5.5-3.1,11-6.1,16.5-9.2c-4.9,14.9-12.9,28.7-23.2,40.4c7.6-1.9,15-5,21.6-9.2
			C670.8,772.5,661.1,786.7,648.3,797z"/>
		<path fill="#1D1025" d="M598.7,798.2c11.6-2.5,22.7-7,32.8-13.2l-8.9,6.1c-3.7,2.8-6.3,7-7.1,11.5c6-3.7,12-7.3,18-11
			c0.7,3.8,1.1,7.7,1,11.6h4.4c3.4-4.2,6.4-8.6,9.1-13.2c5.7,5.7,13.1,9.7,20.9,11.5c-7.5-9-14.5-18.5-20.9-28.4
			c9.4,5.2,19.6,9.1,30.1,11.5c-10.7-10.1-20-21.6-27.8-34.1c7.1,2.8,14.3,5.7,21.4,8.5c-6.7-11-13.3-21.9-20-32.9
			c10,6.9,21,14,33.1,13.6c-13.8-10.2-25.2-23.7-33-39.1l8.7,2.4c-3.4-4.6-6.2-9.6-8.4-14.8c4.8,7.6,13.1,12.9,21.9,14.1
			c-10.2-13.6-19-28.3-26-43.9c4.4,4.1,9.7,7.2,15.3,9.1c-10.3-13.5-17.2-29.6-20.1-46.3c-4.9,16.3-12.1,31.9-21.3,46.2
			c5.2-3.3,10.4-6.6,15.6-9.9c-3.7,14.7-10.2,28.6-19,40.9c5.6-3.2,11.1-6.4,16.7-9.6c-7.1,16.2-15.2,32-24.2,47.2
			c5.5-3.1,11-6.1,16.5-9.2c-4.9,14.9-12.9,28.7-23.2,40.4c7.6-1.9,15-5,21.6-9.2C621.2,773.8,611.5,788,598.7,798.2z"/>
		<path fill="#1D1025" d="M582,784.1c-2.2,6.6-5,13-8.3,19.2H618c-4-6.6-8-13.3-12.1-19.9c10,6.9,21,14,33.1,13.6
			c-13.8-10.2-25.2-23.7-33-39.1l8.7,2.4c-3.4-4.6-6.2-9.6-8.4-14.8c4.8,7.6,13.1,12.9,21.9,14.1c-10.2-13.6-19-28.3-26-43.9
			c4.4,4.1,9.7,7.2,15.3,9.1c-10.3-13.5-17.2-29.6-20.1-46.3c-4.9,16.3-12.1,31.9-21.3,46.2c5.2-3.3,10.4-6.6,15.6-9.9
			c-3.7,14.7-10.2,28.6-19,40.9c5.6-3.2,11.1-6.4,16.7-9.6c-7.1,16.2-15.2,32-24.2,47.2C570.9,790.3,576.4,787.2,582,784.1z"/>
		<path fill="#1D1025" d="M541.6,803.3h9.2c0.7-0.4,1.3-0.8,2-1.1c-0.2,0.4-0.3,0.8-0.5,1.1h18.1c-0.3-0.6-0.5-1.2-0.8-1.8
			c0.4,0.6,0.8,1.2,1.2,1.8h12c-6.6-10-12.4-20.6-17.3-31.5c4.4,4.1,9.7,7.2,15.3,9.1c-10.3-13.5-17.2-29.6-20.1-46.3
			c-4.9,16.3-12.1,31.9-21.3,46.2l15.6-9.9C552.2,782.2,547.6,793.2,541.6,803.3z"/>
	</g>
	<path fill="#1D1025" d="M936.2,906.5c-6-40.1-126.2-168.3-152.3-172.3c-26-4-126.2,0-180.3,4c-54.1,4-56.1,22-98.2,34.1
		c-42.1,12-142.3,0-206.4-4s-82.1-34.1-138.2-54.1C124.4,701.2,51,702.5,0,705.6V980h949.6C945.6,952.8,938.8,924,936.2,906.5z"/>
	<path fill="#CDA162" d="M541.9,744c-14.7,6.3-28.8,14.6-44.4,18.1c-11.1,2.5-22.6,2.5-34,2.5c-46-0.1-92.1-0.2-138.1-0.2
		c-16.7,0-33.8-0.1-49.8-5c-20-6.2-37-19.5-55.1-29.9C157.9,693.3,81.9,691,9.8,693.7c-3.2,0.1-6.5,0.3-9.8,0.7v27.1
		c37.2-1.4,74.6,0.9,111.3,7.1C105.1,734,99,739.5,92.8,745c26.6-2.2,53.9-4.3,79.6,3.1c7.2,2.1,14.1,4.9,21.1,7.7
		c16.8,6.8,33.6,13.7,50.4,20.5c-10.4,6.7-22.6,10.9-34.9,12c31.4,0,62.7,0,94.1,0.1c-2.7-3.2-5.5-6.3-8.2-9.5
		c28.5-14.5,59.4,16.4,91.3,18.7c20.7,1.5,42.4-9.3,61.6-1.6c8.1,3.3,15.2,9.7,23.9,10.3c6.4,0.4,12.5-2.4,18.1-5.4
		c32.2-17.2,61-43.1,96.9-49.3c25.4-4.4,55.1,0.6,73.9-17.1C621.3,724.6,579,728.1,541.9,744z"/>
	<g>
		<path fill="#1D1025" d="M1400,643.1c-6.4-8-12.3-16.3-17.9-24.9c5.7,3.2,11.7,5.9,17.9,8.1v-10.8c-5.6-6.7-10.8-13.8-15.5-21.2
			c5.2,2,10.3,4.1,15.5,6.1v-9c-4.6-7.7-9.3-15.3-13.9-23c4.5,3.1,9.1,6.2,13.9,8.7v-14.5c-5.3-6.5-10-13.6-13.8-21.1
			c3.1,0.8,6.1,1.7,9.2,2.5c-3.6-4.8-6.6-10.1-8.9-15.7c3.3,5.1,8,9.2,13.5,11.9v-10.9c-6.7-10.3-12.6-21.2-17.7-32.4
			c4.6,4.3,10.2,7.6,16.2,9.6c-10.8-14.3-18.2-31.3-21.2-49c-5.2,17.2-12.8,33.7-22.5,48.8c5.5-3.5,11-7,16.4-10.4
			c-3.9,15.5-10.8,30.3-20.1,43.3c5.9-3.4,11.8-6.8,17.7-10.2c-7.5,17.1-16.1,33.8-25.6,49.9c5.8-3.2,11.7-6.5,17.5-9.7
			c-5.2,15.7-13.6,30.3-24.6,42.7c8.1-2,15.8-5.3,22.9-9.7c-5.2,16.6-15.5,31.5-29,42.4c12.2-2.7,24-7.4,34.7-13.9l-9.4,6.4
			c-3.9,2.9-6.7,7.4-7.5,12.2c6.3-3.9,12.7-7.8,19-11.6c1.1,5.9,1.4,12,0.8,18c5.5-6,10.4-12.6,14.6-19.6c5,5,11.2,8.7,17.9,10.9
			V643.1z"/>
		<path fill="#1D1025" d="M1354.9,591.2c-17.5-12.9-31.8-30-41.6-49.4c3.7,1,7.3,2,11,3c-4.3-5.8-7.8-12.1-10.6-18.7
			c6.1,9.6,16.5,16.2,27.7,17.8c-12.9-17.2-24-35.8-32.8-55.4c5.6,5.1,12.2,9.1,19.4,11.5c-13-17.1-21.7-37.4-25.4-58.5
			c-6.2,20.6-15.3,40.3-26.9,58.3c6.5-4.2,13.1-8.3,19.6-12.5c-4.7,18.5-12.9,36.2-24,51.7c7-4,14.1-8.1,21.1-12.1
			c-9,20.5-19.2,40.4-30.6,59.6c7-3.9,13.9-7.8,20.9-11.6c-6.2,18.8-16.2,36.2-29.4,51c9.6-2.4,18.9-6.3,27.3-11.6
			c-6.2,19.8-18.5,37.7-34.7,50.6c14.6-3.2,28.7-8.9,41.4-16.6l-11.2,7.7c-4.7,3.5-8,8.8-9,14.6c7.6-4.6,15.2-9.3,22.7-13.9
			c1.3,7.1,1.7,14.3,1,21.5c6.6-7.2,12.4-15,17.4-23.5c7.3,7.1,16.5,12.2,26.4,14.5c-9.5-11.4-18.3-23.4-26.4-35.9
			c11.9,6.6,24.7,11.5,38,14.5c-13.5-12.8-25.3-27.3-35.2-43.1c9,3.6,18,7.1,27.1,10.7c-8.4-13.8-16.8-27.7-25.2-41.5
			C1325.7,582.7,1339.6,591.7,1354.9,591.2z"/>
		<path fill="#1D1025" d="M1202.6,729.2c14.6-3.2,28.7-8.9,41.4-16.6l-11.2,7.7c-4.7,3.5-8,8.8-9,14.6c7.6-4.6,15.2-9.3,22.7-13.9
			c1,5.4,1.5,10.8,1.3,16.3h4.2c4.8-5.7,9.1-11.8,12.8-18.3c7.3,7.1,16.5,12.2,26.4,14.5c-9.5-11.4-18.3-23.4-26.4-35.9
			c11.9,6.6,24.7,11.5,38,14.5c-13.5-12.8-25.3-27.3-35.2-43.1c9,3.6,18,7.1,27.1,10.7c-8.4-13.8-16.8-27.7-25.2-41.5
			c12.7,8.7,26.5,17.7,41.8,17.2c-17.5-12.9-31.8-30-41.6-49.4c3.7,1,7.3,2,11,3c-4.3-5.8-7.8-12.1-10.6-18.7
			c6.1,9.6,16.5,16.2,27.7,17.8c-12.9-17.2-24-35.8-32.8-55.4c5.6,5.1,12.2,9.1,19.4,11.5c-13-17.1-21.7-37.4-25.4-58.5
			c-6.2,20.6-15.3,40.3-26.9,58.3c6.5-4.2,13.1-8.3,19.6-12.5c-4.7,18.5-12.9,36.2-24,51.7c7-4,14.1-8.1,21.1-12.1
			c-9,20.5-19.2,40.4-30.6,59.6c7-3.9,13.9-7.8,20.9-11.6c-6.2,18.8-16.2,36.2-29.4,51c9.6-2.4,18.9-6.3,27.3-11.6
			C1231.1,698.4,1218.8,716.3,1202.6,729.2z"/>
		<path fill="#1D1025" d="M1140,730.8c14.6-3.2,28.7-8.9,41.4-16.6l-11.2,7.7c-4.7,3.5-8,8.8-9,14.6c7.6-4.6,15.2-9.3,22.7-13.9
			c0.9,4.8,1.4,9.8,1.3,14.7h5.5c4.2-5.3,8.1-10.8,11.5-16.6c7.3,7.1,16.5,12.2,26.4,14.5c-9.5-11.4-18.3-23.4-26.4-35.9
			c11.9,6.6,24.7,11.5,38,14.5c-13.5-12.8-25.3-27.3-35.2-43.1c9,3.6,18,7.1,27.1,10.7c-8.4-13.8-16.8-27.7-25.2-41.5
			c12.7,8.7,26.5,17.7,41.8,17.2c-17.5-12.9-31.8-30-41.6-49.4l11,3c-4.3-5.8-7.8-12.1-10.6-18.7c6.1,9.6,16.5,16.2,27.7,17.8
			c-12.9-17.2-24-35.8-32.8-55.4c5.6,5.1,12.2,9.1,19.4,11.5c-13-17.1-21.7-37.4-25.4-58.5c-6.2,20.6-15.3,40.3-26.9,58.3
			c6.5-4.2,13.1-8.3,19.6-12.5c-4.7,18.5-12.9,36.2-24,51.7c7-4,14.1-8.1,21.1-12.1c-9,20.5-19.2,40.4-30.6,59.6
			c7-3.9,13.9-7.8,20.9-11.6c-6.2,18.8-16.2,36.2-29.4,51c9.6-2.4,18.9-6.3,27.3-11.6C1168.4,700,1156.2,717.9,1140,730.8z"/>
		<path fill="#1D1025" d="M1118.8,713.1c-2.8,8.4-6.3,16.5-10.5,24.2h56.1c-5.1-8.4-10.2-16.7-15.2-25.1
			c12.7,8.7,26.5,17.7,41.8,17.2c-17.5-12.9-31.8-30-41.6-49.4l11,3c-4.3-5.8-7.8-12.1-10.6-18.7c6.1,9.6,16.5,16.2,27.7,17.8
			c-12.9-17.2-24-35.8-32.8-55.4c5.6,5.1,12.2,9.1,19.4,11.5c-13-17.1-21.7-37.4-25.4-58.5c-6.2,20.6-15.3,40.3-26.9,58.3
			c6.5-4.2,13.1-8.3,19.6-12.5c-4.7,18.5-12.9,36.2-24,51.7c7-4,14.1-8.1,21.1-12.1c-9,20.5-19.2,40.4-30.6,59.6
			C1104.9,720.8,1111.9,716.9,1118.8,713.1z"/>
		<path fill="#1D1025" d="M1067.9,737.3h11.6c0.8-0.5,1.7-1,2.5-1.4c-0.2,0.5-0.4,1-0.6,1.4h22.8c-0.3-0.7-0.7-1.5-1-2.2
			c0.5,0.8,1,1.5,1.6,2.2h15.2c-8.3-12.7-15.6-26-21.8-39.8c5.6,5.1,12.2,9.1,19.4,11.5c-13-17.1-21.7-37.4-25.4-58.5
			c-6.2,20.6-15.3,40.3-26.9,58.3l19.6-12.5C1081.2,710.7,1075.5,724.5,1067.9,737.3z"/>
	</g>
	<path fill="#2E243C" d="M1400,980V658.7c-4.6-0.6-7.3-0.9-7.3-0.9s-515-37-628.4,14.8S636.2,808.1,549.9,822.9
		s-347.5,2.5-389.4,29.6S44,909.2,0,914.1V980H1400z"/>
	<path fill="#1D1025" d="M825.6,914.4c32.2-22.3,71.8-30.7,110.4-37.6c38.6-6.9,78.2-13.1,112.5-32.1c5.5-3,11.5-7.7,11-14
		c-0.6-6.2-7.2-9.7-12.9-12.1c-10.4-4.3-20.9-8.6-31.3-12.9c30.2-12.7,61.2-23.3,92.9-31.6c-1.1-5.4-2.1-10.7-3.2-16.1
		c-75.1,11-149.9,24-224.2,39c28.7-19.4,62.4-31.3,96.9-34.3c4.5-5.6,0.6-14.7-5.8-17.9s-14.1-2.5-21.2-1.6
		c-77,9.5-153.9,20.2-230.6,32.1c-8.1,5.6,12.3,14.4,10.5,24.1c-0.6,3.4-4.1,5.6-7.2,7.2c-111.5,58.4-242.4,64-368.3,65
		c26.9,7.8,53.8,15.6,80.7,23.4c-5.5,13.8-22.1,18.6-36.6,21.8c-26.4,5.7-54.6,11.3-79.6,1.3c-9.8-3.9-18.6-10-28-14.8
		c-19.3-9.7-41.4-13.7-62.8-11.2c-4.2,0.5-8.7,1.4-11.3,4.7c-2.4,2.9-2.6,6.9-3.5,10.5c-5.7,22.6-34.6,28.6-57.8,30.1
		C103.9,941,52,944.4,0,947.9v23.7c38.7,0.3,77.4,0.4,116.1,0.2c25.8-0.2,52.4-0.6,75.8-11.4c15.8-7.3,33.1-19.4,49-12.3
		c12.1,5.4,16.3,18.9,21.2,31.9h517C785.2,954,803.2,930,825.6,914.4z"/>
	<g>
		<rect x="817.3" y="610.4" fill="#A37843" width="469" height="86.7"/>
		<polygon fill="#B4884D" points="1274,588.9 1274,604.2 1247.3,604.2 1247.3,588.9 1221.8,588.9 1221.8,604.2 1195.1,604.2 
			1195.1,588.9 1169.6,588.9 1169.6,604.2 1142.9,604.2 1142.9,588.9 1117.4,588.9 1117.4,604.2 1090.7,604.2 1090.7,588.9 
			1065.2,588.9 1065.2,604.2 1038.5,604.2 1038.5,588.9 1013,588.9 1013,604.2 986.3,604.2 986.3,588.9 960.7,588.9 960.7,604.2 
			934.1,604.2 934.1,588.9 908.5,588.9 908.5,604.2 881.9,604.2 881.9,588.9 856.3,588.9 856.3,604.2 829.7,604.2 829.7,588.9 
			811.6,588.9 811.6,615.3 1292.1,615.3 1292.1,588.9 		"/>
		<rect x="978.7" y="325.7" fill="#A37843" width="146.1" height="257.6"/>
		<polygon fill="#B4884D" points="1139.8,295.2 1123.2,295.2 1123.2,308.3 1113.4,308.3 1113.4,295.2 1096.8,295.2 1096.8,308.3 
			1006.8,308.3 1006.8,295.3 990.2,295.3 990.2,308.3 980.5,308.3 980.5,295.3 963.9,295.3 963.9,330.6 963.9,330.6 980.5,330.6 
			990.2,330.6 1006.8,330.6 1139.7,330.6 1139.7,330.5 1139.8,330.5 		"/>
		<g>
			<g>
				<rect x="938.5" y="408.9" fill="#DDB57C" width="49.2" height="288.2"/>
				<rect x="934.2" y="453.8" fill="#E7BE7C" width="57.8" height="30.2"/>
				<rect x="934.2" y="400.8" fill="#E7BE7C" width="57.8" height="12.5"/>
				<path fill="#2E243C" d="M963.1,320.2c-9.1,53.4-45.7,82.3-45.7,82.3h45.7h45.7C1008.8,402.5,972.2,373.6,963.1,320.2z"/>
				<g>
					<g>
						<g>
							<path fill="#2E243C" d="M949.7,421.5c-2.4,0-4.4,2-4.4,4.4v22.5h8.8v-22.5C954.1,423.4,952.1,421.5,949.7,421.5z"/>
						</g>
						<g>
							<path fill="#2E243C" d="M963.1,421.5c-2.4,0-4.4,2-4.4,4.4v22.5h8.8v-22.5C967.5,423.4,965.5,421.5,963.1,421.5z"/>
						</g>
						<g>
							<path fill="#2E243C" d="M976.5,421.5c-2.4,0-4.4,2-4.4,4.4v22.5h8.8v-22.5C981,423.4,979,421.5,976.5,421.5z"/>
						</g>
					</g>
				</g>
				<rect x="941.2" y="487.8" fill="#CDA162" width="14.5" height="5.4"/>
				<rect x="941.2" y="500.8" fill="#CDA162" width="14.5" height="5.4"/>
				<rect x="947.7" y="494.3" fill="#CDA162" width="14.5" height="5.4"/>
				<rect x="963.7" y="662.8" fill="#CDA162" width="14.5" height="5.4"/>
				<rect x="970.2" y="669.5" fill="#CDA162" width="14.5" height="5.4"/>
			</g>
			<g>
				<rect x="1115.9" y="408.9" fill="#DDB57C" width="49.2" height="288.2"/>
				<rect x="1111.6" y="453.8" fill="#E7BE7C" width="57.8" height="30.2"/>
				<rect x="1111.6" y="400.8" fill="#E7BE7C" width="57.8" height="12.5"/>
				<path fill="#2E243C" d="M1140.5,320.2c-9.1,53.4-45.7,82.3-45.7,82.3h45.7h45.7C1186.2,402.5,1149.6,373.6,1140.5,320.2z"/>
				<g>
					<g>
						<g>
							<path fill="#2E243C" d="M1127.1,421.5c-2.4,0-4.4,2-4.4,4.4v22.5h8.8v-22.5C1131.5,423.4,1129.5,421.5,1127.1,421.5z"/>
						</g>
						<g>
							<path fill="#2E243C" d="M1140.5,421.5c-2.4,0-4.4,2-4.4,4.4v22.5h8.8v-22.5C1144.9,423.4,1143,421.5,1140.5,421.5z"/>
						</g>
						<g>
							<path fill="#2E243C" d="M1154,421.5c-2.4,0-4.4,2-4.4,4.4v22.5h8.8v-22.5C1158.4,423.4,1156.4,421.5,1154,421.5z"/>
						</g>
					</g>
				</g>
				<rect x="1118.6" y="487.8" fill="#CDA162" width="14.5" height="5.4"/>
				<rect x="1118.6" y="500.8" fill="#CDA162" width="14.5" height="5.4"/>
				<rect x="1125.1" y="494.3" fill="#CDA162" width="14.5" height="5.4"/>
				<rect x="1141.1" y="662.8" fill="#CDA162" width="14.5" height="5.4"/>
				<rect x="1147.6" y="669.5" fill="#CDA162" width="14.5" height="5.4"/>
			</g>
		</g>
		<g>
			<g>
				<rect x="831.4" y="549.5" fill="#DDB57C" width="49.2" height="147.5"/>
				<rect x="827.1" y="594.5" fill="#E7BE7C" width="57.8" height="30.2"/>
				<rect x="827.1" y="541.5" fill="#E7BE7C" width="57.8" height="12.5"/>
				<path fill="#2E243C" d="M856,460.9c-9.1,53.4-45.7,82.3-45.7,82.3H856h45.7C901.7,543.2,865,514.3,856,460.9z"/>
				<g>
					<g>
						<g>
							<path fill="#2E243C" d="M842.5,562.1c-2.4,0-4.4,2-4.4,4.4V589h8.8v-22.5C846.9,564.1,845,562.1,842.5,562.1z"/>
						</g>
						<g>
							<path fill="#2E243C" d="M856,562.1c-2.4,0-4.4,2-4.4,4.4V589h8.8v-22.5C860.4,564.1,858.4,562.1,856,562.1z"/>
						</g>
						<g>
							<path fill="#2E243C" d="M869.4,562.1c-2.4,0-4.4,2-4.4,4.4V589h8.8v-22.5C873.8,564.1,871.8,562.1,869.4,562.1z"/>
						</g>
					</g>
				</g>
				<rect x="834.1" y="628.5" fill="#CDA162" width="14.5" height="5.4"/>
				<rect x="834.1" y="641.4" fill="#CDA162" width="14.5" height="5.4"/>
				<rect x="840.5" y="634.9" fill="#CDA162" width="14.5" height="5.4"/>
				<rect x="856.6" y="662.8" fill="#CDA162" width="14.5" height="5.4"/>
				<rect x="863" y="669.5" fill="#CDA162" width="14.5" height="5.4"/>
			</g>
			<g>
				<rect x="1223" y="549.5" fill="#DDB57C" width="49.2" height="147.5"/>
				<rect x="1218.7" y="594.5" fill="#E7BE7C" width="57.8" height="30.2"/>
				<rect x="1218.7" y="541.5" fill="#E7BE7C" width="57.8" height="12.5"/>
				<path fill="#2E243C" d="M1247.7,460.9c-9.1,53.4-45.7,82.3-45.7,82.3h45.7h45.7C1293.3,543.2,1256.7,514.3,1247.7,460.9z"/>
				<g>
					<g>
						<g>
							<path fill="#2E243C" d="M1234.2,562.1c-2.4,0-4.4,2-4.4,4.4V589h8.8v-22.5C1238.6,564.1,1236.7,562.1,1234.2,562.1z"/>
						</g>
						<g>
							<path fill="#2E243C" d="M1247.7,562.1c-2.4,0-4.4,2-4.4,4.4V589h8.8v-22.5C1252.1,564.1,1250.1,562.1,1247.7,562.1z"/>
						</g>
						<g>
							<path fill="#2E243C" d="M1261.1,562.1c-2.4,0-4.4,2-4.4,4.4V589h8.8v-22.5C1265.5,564.1,1263.5,562.1,1261.1,562.1z"/>
						</g>
					</g>
				</g>
				<rect x="1225.7" y="628.5" fill="#CDA162" width="14.5" height="5.4"/>
				<rect x="1225.7" y="641.4" fill="#CDA162" width="14.5" height="5.4"/>
				<rect x="1232.2" y="634.9" fill="#CDA162" width="14.5" height="5.4"/>
				<rect x="1248.3" y="662.8" fill="#CDA162" width="14.5" height="5.4"/>
				<rect x="1254.7" y="669.5" fill="#CDA162" width="14.5" height="5.4"/>
			</g>
		</g>
		<g>
			<rect x="1011.2" y="221.4" fill="#DDB57C" width="81.3" height="475.7"/>
			<rect x="1004.1" y="295.6" fill="#E7BE7C" width="95.5" height="49.8"/>
			<rect x="1004.1" y="208.1" fill="#E7BE7C" width="95.5" height="20.7"/>
			<path fill="#2E243C" d="M1051.8,75c-14.9,88.2-75.4,135.9-75.4,135.9h75.4h75.4C1127.2,210.9,1066.8,163.2,1051.8,75z"/>
			<g>
				<g>
					<g>
						<path fill="#2E243C" d="M1029.6,242.1c-4,0-7.3,3.3-7.3,7.3v37.1h14.6v-37.1C1036.9,245.4,1033.7,242.1,1029.6,242.1z"/>
					</g>
					<g>
						<path fill="#2E243C" d="M1051.8,242.1c-4,0-7.3,3.3-7.3,7.3v37.1h14.6v-37.1C1059.1,245.4,1055.8,242.1,1051.8,242.1z"/>
					</g>
					<g>
						<path fill="#2E243C" d="M1074,242.1c-4,0-7.3,3.3-7.3,7.3v37.1h14.6v-37.1C1081.3,245.4,1078,242.1,1074,242.1z"/>
					</g>
				</g>
			</g>
			<rect x="1015.6" y="351.7" fill="#CDA162" width="23.9" height="9"/>
			<rect x="1015.6" y="373" fill="#CDA162" width="23.9" height="9"/>
			<rect x="1026.3" y="362.3" fill="#CDA162" width="23.9" height="9"/>
			<rect x="1052.8" y="640.4" fill="#CDA162" width="23.9" height="9"/>
			<rect x="1063.5" y="651.6" fill="#CDA162" width="23.9" height="9"/>
		</g>
		<rect x="929.2" y="518.7" fill="#DDB57C" width="245.2" height="178.3"/>
		<rect x="994.2" y="429.5" fill="#DDB57C" width="115.2" height="267.5"/>
		<rect x="917.4" y="511.3" fill="#CDA162" width="268.7" height="22.3"/>
		<path fill="#2E243C" d="M1051.8,330.8c-18.6,110-94,169.4-94,169.4h94h94C1145.8,500.3,1070.4,440.8,1051.8,330.8z"/>
		<path fill="#B4884D" d="M1013.1,702.7V590.5c0-21.4,17.4-38.7,38.7-38.7s38.7,17.4,38.7,38.7v112.2H1013.1z"/>
		<path fill="#1D1025" d="M1051.8,557.4L1051.8,557.4c-18.3,0-33.1,14.8-33.1,33.1v106.6h66.2V590.5
			C1084.9,572.2,1070.1,557.4,1051.8,557.4z"/>
		<g>
			<path fill="#B4884D" d="M945.2,702.7v-84.6c0-16.6,13.5-30.2,30.2-30.2c16.6,0,30.2,13.5,30.2,30.2v84.6H945.2z"/>
			<path fill="#1D1025" d="M975.4,593.5L975.4,593.5c-13.6,0-24.5,11-24.5,24.5v79h49.1v-79C999.9,604.5,988.9,593.5,975.4,593.5z"
				/>
			<path fill="#B4884D" d="M1098.1,702.7v-84.6c0-16.6,13.5-30.2,30.2-30.2s30.2,13.5,30.2,30.2v84.6H1098.1z"/>
			<path fill="#1D1025" d="M1128.3,593.5L1128.3,593.5c-13.6,0-24.5,11-24.5,24.5v79h49.1v-79
				C1152.8,604.5,1141.8,593.5,1128.3,593.5z"/>
		</g>
		<rect x="802.6" y="693.3" fill="#CDA162" width="498.5" height="13.2"/>
		<rect x="792.9" y="704.9" fill="#DDB57C" width="517.8" height="13.2"/>
		<g>
			<rect x="940" y="544.2" fill="#CDA162" width="14.5" height="5.4"/>
			<rect x="940" y="557.1" fill="#CDA162" width="14.5" height="5.4"/>
			<rect x="946.5" y="550.6" fill="#CDA162" width="14.5" height="5.4"/>
		</g>
		<g>
			<rect x="974.3" y="565" fill="#CDA162" width="14.5" height="5.4"/>
			<rect x="974.3" y="578" fill="#CDA162" width="14.5" height="5.4"/>
			<rect x="980.7" y="571.5" fill="#CDA162" width="14.5" height="5.4"/>
		</g>
		<g>
			<rect x="1090.9" y="579" fill="#CDA162" width="14.5" height="5.4"/>
			<rect x="1090.9" y="591.9" fill="#CDA162" width="14.5" height="5.4"/>
			<rect x="1097.4" y="585.4" fill="#CDA162" width="14.5" height="5.4"/>
		</g>
		<g>
			<rect x="1090.5" y="540.6" fill="#CDA162" width="14.5" height="5.4"/>
			<rect x="1090.5" y="553.5" fill="#CDA162" width="14.5" height="5.4"/>
			<rect x="1096.9" y="547.1" fill="#CDA162" width="14.5" height="5.4"/>
		</g>
		<g>
			<rect x="1142.9" y="555.6" fill="#CDA162" width="14.5" height="5.4"/>
			<rect x="1142.9" y="568.5" fill="#CDA162" width="14.5" height="5.4"/>
			<rect x="1149.4" y="562" fill="#CDA162" width="14.5" height="5.4"/>
		</g>
	</g>
	<g>
		<path fill="#1D1025" d="M970.3,782.9c-18.7-13.8-34.1-32.1-44.5-52.8c3.9,1.1,7.8,2.2,11.7,3.2c-4.6-6.2-8.4-12.9-11.4-20
			c6.5,10.2,17.6,17.4,29.6,19.1c-13.8-18.4-25.6-38.3-35.1-59.3c5.9,5.5,13,9.7,20.7,12.3c-13.9-18.3-23.3-40-27.1-62.6
			c-6.6,22-16.3,43.1-28.7,62.4c7-4.4,14-8.9,21-13.3c-5,19.8-13.7,38.7-25.7,55.3c7.5-4.3,15.1-8.6,22.6-13
			c-9.6,21.9-20.5,43.2-32.7,63.7c7.4-4.1,14.9-8.3,22.3-12.4c-6.6,20.1-17.4,38.8-31.4,54.6c10.3-2.6,20.2-6.7,29.2-12.4
			c-6.7,21.2-19.7,40.3-37.1,54.2c15.6-3.4,30.7-9.5,44.3-17.8l-12,8.2c-5,3.7-8.5,9.4-9.6,15.6c8.1-5,16.2-9.9,24.3-14.9
			c1.4,7.6,1.8,15.3,1,23c7.1-7.7,13.3-16.1,18.6-25.1c7.8,7.6,17.7,13.1,28.3,15.5c-10.2-12.2-19.6-25-28.2-38.4
			c12.7,7.1,26.5,12.3,40.7,15.5c-14.4-13.7-27.1-29.2-37.6-46.1c9.6,3.8,19.3,7.6,28.9,11.5c-9-14.8-18-29.6-27-44.4
			C939,773.7,953.8,783.4,970.3,782.9z"/>
		<path fill="#1D1025" d="M921.8,799c-18.7-13.8-34.1-32.1-44.5-52.8c3.9,1.1,7.8,2.2,11.7,3.2c-4.6-6.2-8.4-12.9-11.4-20
			c6.5,10.2,17.6,17.4,29.6,19.1c-13.8-18.4-25.6-38.3-35.1-59.3c5.9,5.5,13,9.7,20.7,12.3c-13.9-18.3-23.3-40-27.1-62.6
			c-6.6,22-16.3,43.1-28.7,62.4c7-4.4,14-8.9,21-13.3c-5,19.8-13.7,38.7-25.7,55.3c7.5-4.3,15.1-8.6,22.6-13
			c-9.6,21.9-20.5,43.2-32.7,63.7c7.4-4.1,14.9-8.3,22.3-12.4c-6.6,20.1-17.4,38.8-31.4,54.6c10.3-2.6,20.2-6.7,29.2-12.4
			c-6.7,21.2-19.7,40.3-37.1,54.2c15.6-3.4,30.7-9.5,44.3-17.8l-12,8.2c-5,3.7-8.5,9.4-9.6,15.6c8.1-5,16.2-9.9,24.3-14.9
			c1.4,7.6,1.8,15.3,1,23c7.1-7.7,13.3-16.1,18.6-25.1c7.8,7.6,17.7,13.1,28.3,15.5c-10.2-12.2-19.6-25-28.2-38.4
			c12.7,7.1,26.5,12.3,40.7,15.5c-14.4-13.7-27.1-29.2-37.6-46.1c9.6,3.8,19.3,7.6,28.9,11.5c-9-14.8-18-29.6-27-44.4
			C890.5,789.9,905.3,799.6,921.8,799z"/>
		<path fill="#1D1025" d="M1051.1,831.4c-18.7-13.8-34.1-32.1-44.5-52.8c3.9,1.1,7.8,2.2,11.7,3.2c-4.6-6.2-8.4-12.9-11.4-20
			c6.5,10.2,17.6,17.4,29.6,19.1c-13.8-18.4-25.6-38.3-35.1-59.3c5.9,5.5,13,9.7,20.7,12.3c-13.9-18.3-23.3-40-27.1-62.6
			c-6.6,22-16.3,43.1-28.7,62.4c7-4.4,14-8.9,21-13.3c-5,19.8-13.7,38.7-25.7,55.3c7.5-4.3,15.1-8.6,22.6-13
			c-9.6,21.9-20.5,43.2-32.7,63.7c7.4-4.1,14.9-8.3,22.3-12.4c-6.6,20.1-17.4,38.8-31.4,54.6c10.3-2.6,20.2-6.7,29.2-12.4
			c-6.7,21.2-19.7,40.3-37.1,54.2c15.6-3.4,30.7-9.5,44.3-17.8l-12,8.2c-5,3.7-8.5,9.4-9.6,15.6c8.1-5,16.2-9.9,24.3-14.9
			c1.4,7.6,1.8,15.3,1,23c7.1-7.7,13.3-16.1,18.6-25.1c7.8,7.6,17.7,13.1,28.3,15.5c-10.2-12.2-19.6-25-28.2-38.4
			c12.7,7.1,26.5,12.3,40.7,15.5c-14.4-13.7-27.1-29.2-37.6-46.1c9.6,3.8,19.3,7.6,28.9,11.5c-9-14.8-18-29.6-27-44.4
			C1019.9,822.2,1034.7,831.9,1051.1,831.4z"/>
		<path fill="#1D1025" d="M1128.3,761.3c-18.7-13.8-34.1-32.1-44.5-52.8c3.9,1.1,7.8,2.2,11.7,3.2c-4.6-6.2-8.4-12.9-11.4-20
			c6.5,10.2,17.6,17.4,29.6,19.1c-13.8-18.4-25.6-38.3-35.1-59.3c5.9,5.5,13,9.7,20.7,12.3c-13.9-18.3-23.3-40-27.1-62.6
			c-6.6,22-16.3,43.1-28.7,62.4c7-4.4,14-8.9,21-13.3c-5,19.8-13.7,38.7-25.7,55.3c7.5-4.3,15.1-8.6,22.6-13
			c-9.6,21.9-20.5,43.2-32.7,63.7c7.4-4.1,14.9-8.3,22.3-12.4c-6.6,20.1-17.4,38.8-31.4,54.6c10.3-2.6,20.2-6.7,29.2-12.4
			c-6.7,21.2-19.7,40.3-37.1,54.2c15.6-3.4,30.7-9.5,44.3-17.8l-12,8.2c-5,3.7-8.5,9.4-9.6,15.6c8.1-5,16.2-9.9,24.3-14.9
			c1.4,7.6,1.8,15.3,1,23c7.1-7.7,13.3-16.1,18.6-25.1c7.8,7.6,17.7,13.1,28.3,15.5c-10.2-12.2-19.6-25-28.2-38.4
			c12.7,7.1,26.5,12.3,40.7,15.5c-14.4-13.7-27.1-29.2-37.6-46.1c9.6,3.8,19.3,7.6,28.9,11.5c-9-14.8-18-29.6-27-44.4
			C1097.1,752.2,1111.9,761.9,1128.3,761.3z"/>
		<path fill="#1D1025" d="M1199.3,711.1c-18.7-13.8-34.1-32.1-44.5-52.8c3.9,1.1,7.8,2.2,11.7,3.2c-4.6-6.2-8.4-12.9-11.4-20
			c6.5,10.2,17.6,17.4,29.6,19.1c-13.8-18.4-25.6-38.3-35.1-59.3c5.9,5.5,13,9.7,20.7,12.3c-13.9-18.3-23.3-40-27.1-62.6
			c-6.6,22-16.3,43.1-28.7,62.4c7-4.4,14-8.9,21-13.3c-5,19.8-13.7,38.7-25.7,55.3c7.5-4.3,15.1-8.6,22.6-13
			c-9.6,21.9-20.5,43.2-32.7,63.7c7.4-4.1,14.9-8.3,22.3-12.4c-6.6,20.1-17.4,38.8-31.4,54.6c10.3-2.6,20.2-6.7,29.2-12.4
			c-6.7,21.2-19.7,40.3-37.1,54.2c15.6-3.4,30.7-9.5,44.3-17.8l-12,8.2c-5,3.7-8.5,9.4-9.6,15.6c8.1-5,16.2-9.9,24.3-14.9
			c1.4,7.6,1.8,15.3,1,23c7.1-7.7,13.3-16.1,18.6-25.1c7.8,7.6,17.7,13.1,28.3,15.5c-10.2-12.2-19.6-25-28.2-38.4
			c12.7,7.1,26.5,12.3,40.7,15.5c-14.4-13.7-27.1-29.2-37.6-46.1c9.6,3.8,19.3,7.6,28.9,11.5c-9-14.8-18-29.6-27-44.4
			C1168,702,1182.8,711.7,1199.3,711.1z"/>
		<path fill="#1D1025" d="M1254,761.2c-18.7-13.8-34.1-32.1-44.5-52.8c3.9,1.1,7.8,2.2,11.7,3.2c-4.6-6.2-8.4-12.9-11.4-20
			c6.5,10.2,17.6,17.4,29.6,19.1c-13.8-18.4-25.6-38.3-35.1-59.3c5.9,5.5,13,9.7,20.7,12.3c-13.9-18.3-23.3-40-27.1-62.6
			c-6.6,22-16.3,43.1-28.7,62.4c7-4.4,14-8.9,21-13.3c-5,19.8-13.7,38.7-25.7,55.3c7.5-4.3,15.1-8.6,22.6-13
			c-9.6,21.9-20.5,43.2-32.7,63.7c7.4-4.1,14.9-8.3,22.3-12.4c-6.6,20.1-17.4,38.8-31.4,54.6c10.3-2.6,20.2-6.7,29.2-12.4
			c-6.7,21.2-19.7,40.3-37.1,54.2c15.6-3.4,30.7-9.5,44.3-17.8l-12,8.2c-5,3.7-8.5,9.4-9.6,15.6c8.1-5,16.2-9.9,24.3-14.9
			c1.4,7.6,1.8,15.3,1,23c7.1-7.7,13.3-16.1,18.6-25.1c7.8,7.6,17.7,13.1,28.3,15.5c-10.2-12.2-19.6-25-28.2-38.4
			c12.7,7.1,26.5,12.3,40.7,15.5c-14.4-13.7-27.1-29.2-37.6-46.1c9.6,3.8,19.3,7.6,28.9,11.5c-9-14.8-18-29.6-27-44.4
			C1222.8,752,1237.6,761.7,1254,761.2z"/>
		<path fill="#1D1025" d="M1331.1,721.5c-18.7-13.8-34.1-32.1-44.5-52.8c3.9,1.1,7.8,2.2,11.7,3.2c-4.6-6.2-8.4-12.9-11.4-20
			c6.5,10.2,17.6,17.4,29.6,19.1c-13.8-18.4-25.6-38.3-35.1-59.3c5.9,5.5,13,9.7,20.7,12.3c-13.9-18.3-23.3-40-27.1-62.6
			c-6.6,22-16.3,43.1-28.7,62.4c7-4.4,14-8.9,21-13.3c-5,19.8-13.7,38.7-25.7,55.3c7.5-4.3,15.1-8.6,22.6-13
			c-9.6,21.9-20.5,43.2-32.7,63.7c7.4-4.1,14.9-8.3,22.3-12.4c-6.6,20.1-17.4,38.8-31.4,54.6c10.3-2.6,20.2-6.7,29.2-12.4
			c-6.7,21.2-19.7,40.3-37.1,54.2c15.6-3.4,30.7-9.5,44.3-17.8l-12,8.2c-5,3.7-8.5,9.4-9.6,15.6c8.1-5,16.2-9.9,24.3-14.9
			c1.4,7.6,1.8,15.3,1,23c7.1-7.7,13.3-16.1,18.6-25.1c7.8,7.6,17.7,13.1,28.3,15.5c-10.2-12.2-19.6-25-28.2-38.4
			c12.7,7.1,26.5,12.3,40.7,15.5c-14.4-13.7-27.1-29.2-37.6-46.1c9.6,3.8,19.3,7.6,28.9,11.5c-9-14.8-18-29.6-27-44.4
			C1299.9,712.3,1314.7,722,1331.1,721.5z"/>
		<path fill="#1D1025" d="M868.6,793.4c-22.3-16.5-40.7-38.3-53.2-63.1c4.7,1.3,9.3,2.6,14,3.9c-5.5-7.4-10-15.4-13.6-23.9
			c7.8,12.2,21.1,20.8,35.4,22.8c-16.5-21.9-30.6-45.7-41.9-70.8c7.1,6.5,15.6,11.6,24.7,14.7c-16.6-21.9-27.8-47.7-32.4-74.8
			c-7.9,26.3-19.5,51.4-34.3,74.5c8.4-5.3,16.7-10.6,25.1-15.9c-6,23.7-16.4,46.2-30.7,66c9-5.2,18-10.3,27-15.5
			c-11.4,26.1-24.5,51.6-39.1,76.1c8.9-5,17.8-9.9,26.7-14.9c-7.9,24-20.7,46.3-37.5,65.2c12.3-3.1,24.1-8.1,34.9-14.8
			c-8,25.3-23.6,48.1-44.3,64.7c18.7-4.1,36.6-11.3,52.9-21.3l-14.3,9.8c-6,4.5-10.2,11.3-11.5,18.6c9.7-5.9,19.4-11.9,29.1-17.8
			c1.7,9,2.1,18.3,1.2,27.5c8.4-9.2,15.9-19.2,22.2-30c9.3,9.1,21.1,15.6,33.8,18.6c-12.2-14.6-23.4-29.9-33.7-45.9
			c15.2,8.5,31.6,14.7,48.6,18.6c-17.2-16.4-32.3-34.9-44.9-55c11.5,4.6,23,9.1,34.6,13.7c-10.7-17.7-21.5-35.4-32.2-53.1
			C831.3,782.5,849,794,868.6,793.4z"/>
		<path fill="#1D1025" d="M691.1,969.8c18.7-4.1,36.6-11.3,52.9-21.3l-14.3,9.8c-6,4.5-10.2,11.3-11.5,18.6
			c9.7-5.9,19.4-11.9,29.1-17.8c1.3,6.9,1.9,13.9,1.7,20.8h5.4c6.1-7.3,11.6-15.1,16.4-23.3c9.3,9.1,21.1,15.6,33.8,18.6
			c-12.2-14.6-23.4-29.9-33.7-45.9c15.2,8.5,31.6,14.7,48.6,18.6c-17.2-16.4-32.3-34.9-44.9-55c11.5,4.6,23,9.1,34.6,13.7
			c-10.7-17.7-21.5-35.4-32.2-53.1c16.2,11.1,33.9,22.7,53.5,22c-22.3-16.5-40.7-38.3-53.2-63.1c4.7,1.3,9.3,2.6,14,3.9
			c-5.5-7.4-10-15.4-13.6-23.9c7.8,12.2,21.1,20.8,35.4,22.8c-16.5-21.9-30.6-45.7-41.9-70.8c7.1,6.5,15.6,11.6,24.7,14.7
			c-16.6-21.9-27.8-47.7-32.4-74.8c-7.9,26.3-19.5,51.4-34.3,74.5c8.4-5.3,16.7-10.6,25.1-15.9c-6,23.7-16.4,46.2-30.7,66
			c9-5.2,18-10.3,27-15.5c-11.4,26.1-24.5,51.6-39.1,76.1c8.9-5,17.8-9.9,26.7-14.9c-7.9,24-20.7,46.3-37.5,65.2
			c12.3-3.1,24.1-8.1,34.9-14.8C727.4,930.4,711.8,953.2,691.1,969.8z"/>
		<path fill="#1D1025" d="M611,971.8c18.7-4.1,36.6-11.3,52.9-21.3l-14.3,9.8c-6,4.5-10.2,11.3-11.5,18.6
			c9.7-5.9,19.4-11.9,29.1-17.8c1.2,6.2,1.7,12.5,1.7,18.8h7c5.4-6.7,10.4-13.8,14.7-21.3c9.3,9.1,21.1,15.6,33.8,18.6
			c-12.2-14.6-23.4-29.9-33.7-45.9c15.2,8.5,31.6,14.7,48.6,18.6c-17.2-16.4-32.3-34.9-44.9-55c11.5,4.6,23,9.1,34.6,13.7
			c-10.7-17.7-21.5-35.4-32.2-53.1c16.2,11.1,33.9,22.7,53.5,22c-22.3-16.5-40.7-38.3-53.2-63.1l14,3.9c-5.5-7.4-10-15.4-13.6-23.9
			c7.8,12.2,21.1,20.8,35.4,22.8c-16.5-21.9-30.6-45.7-41.9-70.8c7.1,6.5,15.6,11.6,24.7,14.7c-16.6-21.9-27.8-47.7-32.4-74.8
			c-7.9,26.3-19.5,51.4-34.3,74.5c8.4-5.3,16.7-10.6,25.1-15.9c-6,23.7-16.4,46.2-30.7,66c9-5.2,18-10.3,27-15.5
			c-11.4,26.1-24.5,51.6-39.1,76.1c8.9-5,17.8-9.9,26.7-14.9c-7.9,24-20.7,46.3-37.5,65.2c12.3-3.1,24.1-8.1,34.9-14.8
			C647.4,932.4,631.7,955.2,611,971.8z"/>
		<path fill="#1D1025" d="M584,949.1c-3.5,10.7-8,21-13.4,30.9h71.7c-6.5-10.7-13-21.4-19.5-32.1c16.2,11.1,33.9,22.7,53.5,22
			c-22.3-16.5-40.7-38.3-53.2-63.1l14,3.9c-5.5-7.4-10-15.4-13.6-23.9c7.8,12.2,21.1,20.8,35.4,22.8c-16.5-21.9-30.6-45.7-41.9-70.8
			c7.1,6.5,15.6,11.6,24.7,14.7c-16.6-21.9-27.8-47.7-32.4-74.8c-7.9,26.3-19.5,51.4-34.3,74.5c8.4-5.3,16.7-10.6,25.1-15.9
			c-6,23.7-16.4,46.2-30.7,66c9-5.2,18-10.3,27-15.5c-11.4,26.1-24.5,51.6-39.1,76.1C566.2,959,575.1,954,584,949.1z"/>
		<path fill="#1D1025" d="M518.9,980h14.8c1.1-0.6,2.1-1.2,3.2-1.8c-0.3,0.6-0.5,1.2-0.8,1.8h29.1c-0.4-0.9-0.8-1.9-1.2-2.8
			c0.6,1,1.3,1.9,2,2.8h19.4c-10.6-16.2-19.9-33.2-27.9-50.9c7.1,6.5,15.6,11.6,24.7,14.7c-16.6-21.9-27.8-47.7-32.4-74.8
			c-7.9,26.3-19.5,51.4-34.3,74.5l25.1-15.9C536,946,528.6,963.7,518.9,980z"/>
	</g>
	<path fill="#3D334C" d="M1400,980V676.4c-79.4,2.7-240.3,9.1-273.5,18.3c-44.4,12.3-152.8,123.2-187.3,135.5s-125.7,19.7-160.2,32
		c-28.3,10.1-102.9,86.4-127.5,117.7H1400z"/>
	<path fill="#2E243C" d="M1400,718.5c-63.8,12.9-127.6,25.7-191.4,38.6c-3.4,3.3-4.7,8.6-3.1,13.1c13.3,2.7,26.2,7.8,37.7,15.1
		c4.8,13.8-5,29.1-18,35.8c-12.9,6.7-28.1,6.9-42.7,7.5c-72,2.6-143.6,15-212.3,36.7c8.2,13-11.3,25.6-26.4,28.8
		c-66.7,14.1-133.4,28.3-200.1,42.4c83.2,18.6,169.3,23.8,254.2,15.3c5.4-0.5,11-1.2,15.7-4c4.1-2.4,7-6.2,10.2-9.7
		c23.5-26.4,59-39.9,94.2-43.6c35.2-3.8,70.7,1.2,105.8,6.1c5.2,0.7,10.9,1.7,14.2,5.8c3.3,4.1,3.1,9.9,4.7,14.9
		c5,16,25.4,19.9,42.2,21c38.4,2.3,76.8,3.8,115.2,4.2V718.5z"/>
	<path fill="#1D1025" d="M1400,980V0h-36.2c9.9,35,21.1,76.2,22.3,86.5c2.1,18.8-8.3,195.8-8.3,204.2c0,8.3-45.8-102.1-45.8-102.1
		s-50-114.6-50-122.9c0-5.3,2.5-40.5,4.3-65.7h-19.4l-5.8,51.1L1181.3,0H1153c37.8,24.6,102.2,67.3,108.1,76.1
		c8.3,12.5,39.6,85.4,41.7,93.8s-54.2-47.9-54.2-47.9l-79.2-68.8l41.7,56.3l-100-37.5c0,0,135.4,68.8,154.2,91.7
		s100,208.3,104.2,233.3c3.7,22-2.3,474.7-3.8,583.1H1400z"/>
	<path fill="#A4A09A" d="M891.9,865.1c16.6-2.4,32.9-6.9,49.1-11.4c36-10,71.9-20,107.9-30c3.9-1.1,8.1-2.4,10.3-5.8
		c3.2-5.1,0-11.9-4.3-16.2c-4.3-4.3-9.7-7.6-12.3-13.1c-5.4-11.5,5-24.1,15.6-31c38.6-25.2,88.1-24.6,134-21
		c13.2,1.1,30.6-0.4,33.9-13.3c0.8-3.3,0.5-6.8,1.7-10c2.5-6.4,10.1-8.8,16.8-10.3c44.6-10,90.5-14.1,136.1-12.1
		c3.6-3.9,1.4-10.6-2.9-13.6s-9.9-3.3-15.1-3.5c-79.8-3-160.7-5.9-238.7,11.2c-8.7,1.9-17.4,4.1-25,8.7
		c-10.9,6.6-18.7,17.7-30.3,22.9c-8.7,3.9-18.8,4.1-27.5,8.1c-8.7,4-15.9,14.6-11.1,22.8c-33.9,15.2-55.7,49.3-87.6,68.4
		c-61.3,36.8-149.1,13.2-203.2,60c-14,12.1-24.3,28.1-38.6,39.9c-8.6,7.2-18.4,12.7-26.4,20.6c-8,7.8-14,18.9-11.9,29.9
		c39.5-39.3,82.1-80.3,136.4-92.6C829.4,866.9,861.1,869.6,891.9,865.1z"/>
	<path opacity="0.2" fill="#FFFFFF" d="M1400,211.5V178c-40.6-0.2-81.3-0.4-121.9-0.6c-35.1-0.2-71.1-0.2-104,11.9
		c-25.3,9.3-47.5,25.3-72.3,35.9c-60.1,25.8-129,17.4-192.8,3.1c-42.9-9.7-95-19.3-125,12.8c-9.8,10.4-16,24.5-28.2,32
		c-10.8,6.6-24.2,6.7-36.9,6.5c-59.2-0.6-118.3-1.1-177.5-1.7c-11.8-0.1-27.6-3.9-27.7-15.8c0-11.3,15-16.2,19.8-26.4
		c9-19-19.8-32.7-40.9-33.8c-48-2.7-96.1-3.5-144.1-2.4c-38.4,0.9-87.5-4.1-124.3,3c-69.4,13.4,25.6,51.3,31.2,73.7
		c3.2,13-6.3,26.5-18.3,32.3c-12,5.9-26,6-39.4,6c-65.8,0-131.9,0-197.7-3.6v104.3c58.8,0.3,117.7,0.7,176.5,1
		c24.2,0.1,39-3.7,55.1-20.3c16.3-16.8,18.7-30.2,44.2-34.4c32.5-5.2,72.8,3.2,105.7,4.7c10.5,0.5,23.4-0.5,27.7-10.1
		c7-15.7-10-28.2,12.4-38.8c7.8-3.7,16.6-4.3,25.3-4.7c44.4-2.1,87.2,9.6,131.8,12.2c1.2,17.5-22.1,24.8-39.5,24.1
		c-17.5-0.7-39.8-0.9-46.7,15.2c-5.2,12.1,3.2,26.5,14.8,32.6c11.6,6.1,25.3,6.1,38.5,6c48.9-0.5,97.7-1.1,146.6-1.6
		c0.2-28.7,31.5-47.7,60-50.6c28.6-2.8,57.5,4.5,85.9,0.3c8.6-1.3,17.7-4.1,22.5-11.3c7.3-11.1-0.2-27.1-12-33.4
		c-11.7-6.3-25.8-5.7-39.1-4.8c-13.6-18.6,13.1-40.9,35.7-45.8c46.2-9.8,95.6-3.3,137.7,18c-16.3,9.8-37,3.4-56,1.6
		c-19-1.8-43.5,7-43.3,26c159.9,5.1,320,4.6,479.8-1.8c3.3-9.9,3.3-20.9,0-30.8c-39.5-2.5-79.1-5.1-118.6-7.6
		c-11.9-0.8-24.5-1.8-34.2-8.8c-9.7-7-14.3-22.3-6.2-31C1269.8,218.1,1334.9,214.8,1400,211.5z"/>
</g>
</svg>
